<?xml version="1.0" encoding="UTF-8"?>

<svg version="1.2" baseProfile="tiny" width="50mm" height="50mm" viewBox="0 0 5000 5000" preserveAspectRatio="xMidYMid" fill-rule="evenodd" stroke-width="28.222" stroke-linejoin="round" xmlns="http://www.w3.org/2000/svg" xmlns:ooo="http://xml.openoffice.org/svg/export" xmlns:xlink="http://www.w3.org/1999/xlink" xmlns:presentation="http://sun.com/xmlns/staroffice/presentation" xmlns:smil="http://www.w3.org/2001/SMIL20/" xmlns:anim="urn:oasis:names:tc:opendocument:xmlns:animation:1.0" xml:space="preserve">
 <defs class="ClipPathGroup">
  <clipPath id="presentation_clip_path" clipPathUnits="userSpaceOnUse">
   <rect x="0" y="0" width="5000" height="5000"/>
  </clipPath>
 </defs>
 <defs class="TextShapeIndex">
  <g ooo:slide="id1" ooo:id-list="id3 id4"/>
 </defs>
 <defs class="EmbeddedBulletChars">
  <g id="bullet-char-template(57356)" transform="scale(0.00048828125,-0.00048828125)">
   <path d="M 580,1141 L 1163,571 580,0 -4,571 580,1141 Z"/>
  </g>
  <g id="bullet-char-template(57354)" transform="scale(0.00048828125,-0.00048828125)">
   <path d="M 8,1128 L 1137,1128 1137,0 8,0 8,1128 Z"/>
  </g>
  <g id="bullet-char-template(10146)" transform="scale(0.00048828125,-0.00048828125)">
   <path d="M 174,0 L 602,739 174,1481 1456,739 174,0 Z M 1358,739 L 309,1346 659,739 1358,739 Z"/>
  </g>
  <g id="bullet-char-template(10132)" transform="scale(0.00048828125,-0.00048828125)">
   <path d="M 2015,739 L 1276,0 717,0 1260,543 174,543 174,936 1260,936 717,1481 1274,1481 2015,739 Z"/>
  </g>
  <g id="bullet-char-template(10007)" transform="scale(0.00048828125,-0.00048828125)">
   <path d="M 0,-2 C -7,14 -16,27 -25,37 L 356,567 C 262,823 215,952 215,954 215,979 228,992 255,992 264,992 276,990 289,987 310,991 331,999 354,1012 L 381,999 492,748 772,1049 836,1024 860,1049 C 881,1039 901,1025 922,1006 886,937 835,863 770,784 769,783 710,716 594,584 L 774,223 C 774,196 753,168 711,139 L 727,119 C 717,90 699,76 672,76 641,76 570,178 457,381 L 164,-76 C 142,-110 111,-127 72,-127 30,-127 9,-110 8,-76 1,-67 -2,-52 -2,-32 -2,-23 -1,-13 0,-2 Z"/>
  </g>
  <g id="bullet-char-template(10004)" transform="scale(0.00048828125,-0.00048828125)">
   <path d="M 285,-33 C 182,-33 111,30 74,156 52,228 41,333 41,471 41,549 55,616 82,672 116,743 169,778 240,778 293,778 328,747 346,684 L 369,508 C 377,444 397,411 428,410 L 1163,1116 C 1174,1127 1196,1133 1229,1133 1271,1133 1292,1118 1292,1087 L 1292,965 C 1292,929 1282,901 1262,881 L 442,47 C 390,-6 338,-33 285,-33 Z"/>
  </g>
  <g id="bullet-char-template(9679)" transform="scale(0.00048828125,-0.00048828125)">
   <path d="M 813,0 C 632,0 489,54 383,161 276,268 223,411 223,592 223,773 276,916 383,1023 489,1130 632,1184 813,1184 992,1184 1136,1130 1245,1023 1353,916 1407,772 1407,592 1407,412 1353,268 1245,161 1136,54 992,0 813,0 Z"/>
  </g>
  <g id="bullet-char-template(8226)" transform="scale(0.00048828125,-0.00048828125)">
   <path d="M 346,457 C 273,457 209,483 155,535 101,586 74,649 74,723 74,796 101,859 155,911 209,963 273,989 346,989 419,989 480,963 531,910 582,859 608,796 608,723 608,648 583,586 532,535 482,483 420,457 346,457 Z"/>
  </g>
  <g id="bullet-char-template(8211)" transform="scale(0.00048828125,-0.00048828125)">
   <path d="M -4,459 L 1135,459 1135,606 -4,606 -4,459 Z"/>
  </g>
 </defs>
 <defs class="TextEmbeddedBitmaps"/>
 <g>
  <g id="id2" class="Master_Slide">
   <g id="bg-id2" class="Background"/>
   <g id="bo-id2" class="BackgroundObjects"/>
  </g>
 </g>
 <g class="SlideGroup">
  <g>
   <g id="id1" class="Slide" clip-path="url(#presentation_clip_path)">
    <g class="Page">
     <g class="com.sun.star.drawing.ClosedBezierShape">
      <g id="id3">
       <rect class="BoundingBox" stroke="none" fill="none" x="1541" y="1346" width="1872" height="2045"/>
       <path fill="rgb(255,255,255)" stroke="none" d="M 2513,2201 C 2423,2201 2336,2186 2254,2154 2169,2124 2107,2082 2062,2029 2019,1977 1997,1917 1997,1855 1997,1773 2019,1696 2064,1621 2109,1546 2174,1484 2259,1429 2343,1374 2415,1347 2473,1347 2503,1347 2518,1359 2518,1384 2518,1409 2503,1439 2470,1476 2438,1511 2423,1544 2423,1566 2423,1591 2430,1608 2443,1621 2455,1636 2473,1643 2495,1651 2515,1658 2550,1663 2595,1666 2679,1671 2742,1681 2779,1698 2819,1716 2851,1743 2876,1778 2901,1815 2914,1858 2916,1907 2916,1960 2899,2009 2869,2057 2836,2102 2792,2137 2729,2164 2670,2189 2597,2201 2513,2201 Z M 1785,2306 C 1785,2236 1800,2174 1833,2114 1865,2057 1897,2027 1932,2027 1957,2027 1970,2042 1972,2069 1975,2117 1999,2161 2049,2199 2097,2239 2164,2271 2246,2293 2328,2316 2410,2328 2493,2328 2602,2328 2699,2306 2787,2261 2874,2214 2944,2149 2993,2067 3003,2052 3013,2044 3028,2044 3061,2044 3088,2069 3110,2119 3133,2169 3143,2226 3143,2291 3143,2438 3078,2553 2951,2637 2824,2722 2657,2764 2453,2764 2259,2764 2099,2724 1975,2640 1848,2557 1785,2448 1785,2306 Z M 3412,2749 C 3412,2871 3374,2983 3295,3078 3215,3175 3103,3250 2953,3305 2807,3362 2645,3389 2468,3389 2386,3389 2283,3380 2161,3360 2039,3337 1935,3305 1845,3262 1758,3218 1683,3153 1626,3068 1569,2983 1541,2891 1541,2797 1541,2719 1559,2652 1593,2590 1628,2530 1666,2500 1703,2500 1720,2500 1738,2515 1750,2543 1778,2615 1830,2675 1907,2724 1982,2774 2067,2812 2161,2834 2254,2856 2356,2869 2465,2869 2660,2869 2821,2836 2951,2769 3078,2702 3163,2607 3205,2483 3208,2473 3215,2460 3220,2448 3225,2435 3235,2430 3250,2430 3280,2430 3315,2460 3355,2525 3394,2587 3412,2662 3412,2749 Z"/>
      </g>
     </g>
     <g class="com.sun.star.drawing.PolyPolygonShape">
      <g id="id4">
       <rect class="BoundingBox" stroke="none" fill="none" x="332" y="211" width="4275" height="4407"/>
       <path fill="rgb(255,255,255)" stroke="none" d="M 3221,1075 L 3187,1059 3150,1041 3115,1025 3078,1009 3044,995 3007,980 2968,969 2932,956 2893,945 2856,934 2818,926 2779,918 2741,912 2703,904 2662,899 2624,896 2586,892 2545,890 2505,887 2468,889 2427,888 2388,890 2350,892 2310,894 2271,899 2231,906 2194,910 2155,919 2116,926 2079,936 2040,945 2004,957 1965,969 1929,983 1891,995 1855,1009 1819,1026 1783,1042 1748,1059 1715,1078 1679,1097 1646,1116 1611,1137 1578,1159 1549,1182 1516,1206 1484,1230 1454,1253 1424,1279 1395,1305 1365,1331 1338,1359 1311,1387 1284,1416 1258,1446 1234,1476 1207,1507 1186,1540 1162,1570 1140,1603 1119,1635 1098,1670 1079,1702 1061,1737 1042,1774 1026,1809 1010,1843 994,1880 981,1917 968,1953 954,1990 944,2029 933,2065 922,2104 914,2143 906,2181 898,2220 892,2258 887,2299 884,2337 881,2375 878,2415 877,2455 877,2493 879,2533 881,2573 883,2610 887,2650 892,2689 896,2729 903,2766 912,2805 919,2844 929,2881 941,2919 950,2956 962,2995 976,3031 990,3069 1005,3105 1021,3141 1038,3176 1055,3212 1073,3245 1092,3280 1114,3313 1135,3346 1156,3378 1178,3411 1201,3443 1227,3473 1251,3505 1277,3535 1303,3562 1331,3592 1357,3619 1388,3645 1416,3672 1446,3699 1477,3723 1507,3747 1537,3771 1570,3792 1602,3814 1637,3835 1670,3856 1705,3875 1739,3893 1774,3912 1809,3928 1846,3944 1882,3959 1919,3973 1956,3986 1992,3997 2031,4010 2067,4019 2106,4029 2145,4037 2183,4045 2221,4051 2262,4056 2300,4062 2338,4065 2379,4068 2417,4069 2457,4072 2497,4069 2534,4068 2574,4068 2614,4064 2654,4059 2691,4055 2730,4050 2770,4043 2806,4034 2845,4024 2884,4015 2921,4006 2960,3994 2996,3980 3034,3968 3070,3953 3106,3937 3142,3920 3177,3904 3211,3887 3246,3868 3281,3847 3314,3828 3347,3806 3379,3785 3412,3761 3442,3738 3474,3714 3504,3688 3533,3662 3563,3636 3590,3608 3617,3580 3643,3552 3670,3521 3697,3493 3721,3463 3745,3430 3769,3399 3790,3367 3812,3334 3833,3299 3851,3267 3870,3232 3889,3198 3904,3161 3923,3126 3939,3089 3952,3055 3966,3018 3979,2979 3992,2942 4003,2904 4011,2868 4022,2829 4030,2790 4036,2752 4044,2713 4049,2673 4052,2635 4055,2597 4058,2556 4061,2516 4059,2478 4060,2438 4058,2401 4056,2361 4051,2321 4049,2282 4042,2242 4038,2205 4028,2166 4022,2129 4012,2090 4003,2051 3991,2015 3979,1976 3965,1940 3953,1901 3939,1865 3922,1830 3905,1794 3889,1761 3870,1725 3851,1690 4324,1420 4349,1467 4375,1512 4398,1560 4418,1607 4441,1657 4459,1705 4478,1756 4496,1804 4512,1855 4525,1906 4541,1957 4552,2008 4563,2060 4574,2111 4582,2163 4588,2215 4594,2267 4598,2321 4601,2374 4605,2426 4606,2478 4604,2531 4603,2584 4599,2635 4595,2688 4588,2741 4582,2792 4573,2846 4564,2897 4552,2948 4540,3000 4526,3052 4512,3101 4497,3150 4478,3200 4461,3250 4442,3300 4420,3347 4398,3395 4376,3443 4351,3491 4326,3536 4299,3582 4271,3628 4241,3671 4211,3715 4181,3756 4148,3797 4115,3839 4082,3880 4047,3919 4011,3958 3975,3995 3937,4032 3898,4067 3857,4101 3818,4136 3777,4168 3733,4201 3691,4231 3647,4261 3603,4289 3558,4316 3514,4344 3466,4367 3419,4392 3372,4415 3324,4436 3276,4456 3226,4477 3178,4495 3127,4511 3076,4527 3025,4543 2974,4554 2923,4567 2871,4578 2820,4587 2768,4595 2716,4601 2664,4607 2609,4611 2557,4614 2507,4615 2452,4616 2401,4614 2346,4613 2296,4609 2242,4603 2191,4596 2138,4590 2087,4580 2035,4571 1984,4560 1930,4546 1881,4534 1831,4517 1779,4500 1730,4484 1680,4464 1632,4445 1585,4422 1537,4400 1489,4378 1444,4353 1396,4326 1353,4301 1307,4271 1263,4244 1219,4211 1178,4181 1137,4148 1095,4115 1057,4082 1015,4047 978,4008 941,3972 904,3934 870,3895 835,3854 800,3813 768,3772 738,3730 708,3688 678,3644 650,3600 623,3555 597,3508 572,3461 549,3413 526,3366 505,3318 484,3270 466,3222 448,3171 432,3121 416,3070 403,3019 390,2968 379,2916 368,2865 359,2813 351,2761 345,2709 341,2657 335,2603 334,2550 333,2498 332,2445 334,2392 337,2339 342,2289 346,2235 352,2182 361,2131 370,2080 380,2028 394,1977 405,1925 419,1873 436,1824 453,1774 470,1725 489,1675 509,1627 531,1580 556,1532 578,1484 603,1439 630,1393 657,1347 685,1304 715,1260 745,1217 778,1173 811,1134 844,1093 879,1053 912,1014 951,977 986,938 1028,903 1066,869 1105,834 1146,802 1188,770 1232,737 1276,707 1318,680 1362,652 1409,624 1456,598 1501,573 1549,550 1596,530 1644,507 1695,488 1743,470 1793,452 1842,436 1895,423 1943,407 1997,396 2046,385 2098,374 2152,366 2204,360 2256,354 2308,350 2363,346 2413,343 2465,342 2520,343 2571,345 2624,349 2677,353 2730,359 2781,366 2835,375 2886,384 2938,396 2989,407 3038,419 3090,436 3139,450 3189,467 3239,487 3289,506 3336,528 3384,550 3432,572 3480,597 3498,211 4060,1217 2937,1309 3221,1075 Z"/>
      </g>
     </g>
    </g>
   </g>
  </g>
 </g>
</svg>